<?xml version="1.0" encoding="utf-8"?>
<svg version="1.1" id="Layer_1" xmlns="http://www.w3.org/2000/svg" xmlns:xlink="http://www.w3.org/1999/xlink" x="0px" y="0px"
     viewBox="0 0 2000 2000" style="enable-background:new 0 0 2000 2000;" xml:space="preserve">
<style type="text/css">
	.st0{fill:#6989F5;}
</style>
    <path class="st0" d="M1798.2,1272.9h-161.6c0,0-181.9,0-181.9-181.9V202.3c-1-54.8-22.8-106.9-60.5-144.6
	c-38.1-38-88.9-58.7-141.4-57.6H202.9C150.3-1.2,99.3,19.3,61,57.3c-18.8,18.7-33.9,41.3-44.4,66.1C6.2,148.3,0.5,175.1,0,202.3
	v1050.3c0.5,27.1,6.1,53.8,16.5,78.6c10.5,24.9,25.5,47.3,44.2,65.9c38.1,38,88.9,58.7,141.4,57.7h888.7c0,0,181.8,0,181.8,181.8
	v161.6c0.5,27.1,6,53.7,16.4,78.5c21.3,50.3,60.7,89.6,109.5,109.2c24.3,9.9,50.1,14.6,76.2,14.1h323.5
	c52.5,1.1,103.2-19.5,141.4-57.5c37.6-37.7,59.3-89.7,60.3-144.4v-323.4c-1.1-54.8-23-106.8-60.7-144.4
	C1901.3,1292.5,1850.6,1271.9,1798.2,1272.9z"/>
</svg>
